<svg xmlns="http://www.w3.org/2000/svg" version="1.1" xmlns:xlink="http://www.w3.org/1999/xlink" xmlns:svgjs="http://svgjs.dev/svgjs" viewBox="0 0 800 800" preserveAspectRatio="xMidYMid slice"><defs><pattern id="pppixelate-pattern" width="20" height="20" patternUnits="userSpaceOnUse" patternTransform="translate(0 0) scale(40) rotate(0)" shape-rendering="crispEdges">
    <rect width="1" height="1" x="7" y="1" fill="#8b572aff"></rect><rect width="1" height="1" x="8" y="1" fill="#8b572aff"></rect><rect width="1" height="1" x="9" y="1" fill="#8b572aff"></rect><rect width="1" height="1" x="10" y="1" fill="#8b572aff"></rect><rect width="1" height="1" x="6" y="2" fill="#8b572aff"></rect><rect width="1" height="1" x="11" y="2" fill="#8b572aff"></rect><rect width="1" height="1" x="5" y="3" fill="#8b572aff"></rect><rect width="1" height="1" x="10" y="3" fill="#8b572aff"></rect><rect width="1" height="1" x="11" y="3" fill="#8b572aff"></rect><rect width="1" height="1" x="6" y="4" fill="#8b572aff"></rect><rect width="1" height="1" x="9" y="4" fill="#8b572aff"></rect><rect width="1" height="1" x="10" y="4" fill="#8b572aff"></rect><rect width="1" height="1" x="11" y="4" fill="#8b572aff"></rect><rect width="1" height="1" x="7" y="5" fill="#8b572aff"></rect><rect width="1" height="1" x="8" y="5" fill="#8b572aff"></rect><rect width="1" height="1" x="9" y="5" fill="#8b572aff"></rect><rect width="1" height="1" x="10" y="5" fill="#8b572aff"></rect><rect width="1" height="1" x="12" y="5" fill="#8b572aff"></rect><rect width="1" height="1" x="6" y="6" fill="#8b572aff"></rect><rect width="1" height="1" x="10" y="6" fill="#8b572aff"></rect><rect width="1" height="1" x="13" y="6" fill="#8b572aff"></rect><rect width="1" height="1" x="5" y="7" fill="#8b572aff"></rect><rect width="1" height="1" x="10" y="7" fill="#8b572aff"></rect><rect width="1" height="1" x="12" y="7" fill="#8b572aff"></rect><rect width="1" height="1" x="14" y="7" fill="#8b572aff"></rect><rect width="1" height="1" x="4" y="8" fill="#8b572aff"></rect><rect width="1" height="1" x="11" y="8" fill="#8b572aff"></rect><rect width="1" height="1" x="15" y="8" fill="#8b572aff"></rect><rect width="1" height="1" x="4" y="9" fill="#8b572aff"></rect><rect width="1" height="1" x="15" y="9" fill="#8b572aff"></rect><rect width="1" height="1" x="3" y="10" fill="#8b572aff"></rect><rect width="1" height="1" x="16" y="10" fill="#8b572aff"></rect><rect width="1" height="1" x="3" y="11" fill="#8b572aff"></rect><rect width="1" height="1" x="16" y="11" fill="#8b572aff"></rect><rect width="1" height="1" x="3" y="12" fill="#8b572aff"></rect><rect width="1" height="1" x="15" y="12" fill="#8b572aff"></rect><rect width="1" height="1" x="16" y="12" fill="#8b572aff"></rect><rect width="1" height="1" x="3" y="13" fill="#8b572aff"></rect><rect width="1" height="1" x="15" y="13" fill="#8b572aff"></rect><rect width="1" height="1" x="16" y="13" fill="#8b572aff"></rect><rect width="1" height="1" x="3" y="14" fill="#8b572aff"></rect><rect width="1" height="1" x="14" y="14" fill="#8b572aff"></rect><rect width="1" height="1" x="15" y="14" fill="#8b572aff"></rect><rect width="1" height="1" x="16" y="14" fill="#8b572aff"></rect><rect width="1" height="1" x="3" y="15" fill="#8b572aff"></rect><rect width="1" height="1" x="13" y="15" fill="#8b572aff"></rect><rect width="1" height="1" x="14" y="15" fill="#8b572aff"></rect><rect width="1" height="1" x="15" y="15" fill="#8b572aff"></rect><rect width="1" height="1" x="16" y="15" fill="#8b572aff"></rect><rect width="1" height="1" x="4" y="16" fill="#8b572aff"></rect><rect width="1" height="1" x="12" y="16" fill="#8b572aff"></rect><rect width="1" height="1" x="13" y="16" fill="#8b572aff"></rect><rect width="1" height="1" x="14" y="16" fill="#8b572aff"></rect><rect width="1" height="1" x="15" y="16" fill="#8b572aff"></rect><rect width="1" height="1" x="5" y="17" fill="#8b572aff"></rect><rect width="1" height="1" x="9" y="17" fill="#8b572aff"></rect><rect width="1" height="1" x="10" y="17" fill="#8b572aff"></rect><rect width="1" height="1" x="11" y="17" fill="#8b572aff"></rect><rect width="1" height="1" x="12" y="17" fill="#8b572aff"></rect><rect width="1" height="1" x="13" y="17" fill="#8b572aff"></rect><rect width="1" height="1" x="14" y="17" fill="#8b572aff"></rect><rect width="1" height="1" x="6" y="18" fill="#8b572aff"></rect><rect width="1" height="1" x="7" y="18" fill="#8b572aff"></rect><rect width="1" height="1" x="8" y="18" fill="#8b572aff"></rect><rect width="1" height="1" x="9" y="18" fill="#8b572aff"></rect><rect width="1" height="1" x="10" y="18" fill="#8b572aff"></rect><rect width="1" height="1" x="11" y="18" fill="#8b572aff"></rect><rect width="1" height="1" x="12" y="18" fill="#8b572aff"></rect><rect width="1" height="1" x="13" y="18" fill="#8b572aff"></rect>
  </pattern></defs><rect width="100%" height="100%" fill="url(#pppixelate-pattern)"></rect></svg>