<svg xmlns="http://www.w3.org/2000/svg" version="1.1" xmlns:xlink="http://www.w3.org/1999/xlink" xmlns:svgjs="http://svgjs.dev/svgjs" viewBox="0 0 800 800" preserveAspectRatio="xMidYMid slice"><defs><pattern id="pppixelate-pattern" width="20" height="20" patternUnits="userSpaceOnUse" patternTransform="translate(0 0) scale(40) rotate(0)" shape-rendering="crispEdges">
    <rect width="1" height="1" x="6" y="6" fill="#ff3333"></rect><rect width="1" height="1" x="7" y="6" fill="#ff3333"></rect><rect width="1" height="1" x="8" y="6" fill="#ff3333"></rect><rect width="1" height="1" x="10" y="6" fill="#ff3333"></rect><rect width="1" height="1" x="11" y="6" fill="#ff3333"></rect><rect width="1" height="1" x="12" y="6" fill="#ff3333"></rect><rect width="1" height="1" x="5" y="7" fill="#ff3333"></rect><rect width="1" height="1" x="9" y="7" fill="#ff3333"></rect><rect width="1" height="1" x="13" y="7" fill="#ff3333"></rect><rect width="1" height="1" x="5" y="8" fill="#ff3333"></rect><rect width="1" height="1" x="13" y="8" fill="#ff3333"></rect><rect width="1" height="1" x="5" y="9" fill="#ff3333"></rect><rect width="1" height="1" x="13" y="9" fill="#ff3333"></rect><rect width="1" height="1" x="6" y="10" fill="#ff3333"></rect><rect width="1" height="1" x="12" y="10" fill="#ff3333"></rect><rect width="1" height="1" x="7" y="11" fill="#ff3333"></rect><rect width="1" height="1" x="11" y="11" fill="#ff3333"></rect><rect width="1" height="1" x="8" y="12" fill="#ff3333"></rect><rect width="1" height="1" x="10" y="12" fill="#ff3333"></rect><rect width="1" height="1" x="9" y="13" fill="#ff3333"></rect>
  </pattern></defs><rect width="100%" height="100%" fill="url(#pppixelate-pattern)"></rect></svg>